<?xml version="1.0" encoding="UTF-8"?>
<svg id="Calque_3" data-name="Calque 3" xmlns="http://www.w3.org/2000/svg" viewBox="0 0 222.67 105">
  <defs>
    <style>
      .cls-1 {
        fill: #18407d;
      }

      .cls-2 {
        fill: #3c3c3b;
      }

      .cls-3 {
        fill: #183f7c;
      }
    </style>
  </defs>
  <path class="cls-3" d="M2.33,94.45l218,.12v-3.09l-218-.12v3.09ZM2.33,10.43v3.09l218,.12v-3.09l-218-.12Z"/>
  <g>
    <path class="cls-2" d="M220.25,55.47v-1.65c0-7.77-3.51-14.64-13.19-14.64-8.12,0-13.99,5.01-13.99,13.64s6.57,13.69,15.19,13.69c3.36,0,6.67-.5,9.58-1.65v-6.37c-2.71,1.45-5.52,2.01-7.97,2.01-4.41,0-7.17-1.4-7.67-5.01h18.05Zm-8.12-5.11h-10.03c.2-3.01,1.76-5.47,5.01-5.47,3.61,0,5.01,2.46,5.01,5.47m-29.54,15.54h9.03v-16.3c0-5.42-2.86-10.43-9.98-10.43-4.11,0-7.72,1.65-9.53,5.42h-.1v-4.81h-8.22v26.13h9.03v-11.03c0-5.62,1.91-8.17,5.62-8.17,2.46,0,4.16,1.65,4.16,6.57v12.64Zm-29.94,0h9.03v-26.13h-9.03v26.13Zm0-30.39h9.03v-6.62h-9.03v6.62Zm-11.13,30.39h9.03v-15.39c0-7.07-1.7-11.33-9.23-11.33-3.71,0-7.17,1.5-9.28,5.01-1.4-3.41-4.46-5.01-8.17-5.01-4.11,0-7.72,1.65-9.53,5.42h-.1v-4.81h-8.22v26.13h9.03v-11.03c0-5.62,1.91-8.17,5.12-8.17,2.56,0,3.61,2.21,3.61,5.16v14.04h9.03v-11.03c0-5.62,1.91-8.17,5.11-8.17,2.56,0,3.61,2.21,3.61,5.16v14.04Zm-46.63,0h9.03v-16.3c0-5.42-2.86-10.43-9.98-10.43-3.91,0-6.77,1.76-8.73,4.46h-.1v-15.34h-9.03v37.61h9.03v-11.03c0-5.62,1.91-8.17,5.62-8.17,2.46,0,4.16,1.65,4.16,6.57v12.64Zm-27.93,.6c2.41,0,5.11-.4,7.37-1.15l-.2-6.72c-1.51,.8-3.56,1.25-5.62,1.25-3.91,0-7.42-2.71-7.42-6.87,0-4.51,3.01-7.22,6.92-7.22,2.16,0,3.81,.45,5.46,1.45l.65-6.62c-2.06-1-4.46-1.45-7.17-1.45-8.63,0-15.19,5.01-15.19,13.69s6.57,13.64,15.19,13.64m-34.7-11.03h18.05v-1.65c0-7.77-3.51-14.64-13.19-14.64-8.12,0-13.99,5.01-13.99,13.64s6.57,13.69,15.19,13.69c3.36,0,6.67-.5,9.58-1.65v-6.37c-2.71,1.45-5.52,2.01-7.97,2.01-4.41,0-7.17-1.4-7.67-5.01m-.1-5.11c.2-3.01,1.76-5.47,5.01-5.47,3.61,0,5.01,2.46,5.01,5.47h-10.03Zm-11.88-13h8.62v-6.92H2.33v6.92H10.96v28.54h9.33v-28.54Z"/>
    <path class="cls-1" d="M152.68,72.75v-1.13h-4.49v6.11h4.49v-1.13h-3.27v-1.31h2.91v-1.13h-2.91v-1.4h3.27Zm-9.59,1.58v1.13h1.81c-.24,.72-.83,1.23-1.72,1.23-1.19,0-1.94-.92-1.94-1.93,0-1.3,.84-2.11,2-2.11,.55,0,1.32,.2,1.64,1.1h1.31c-.38-1.55-1.67-2.24-2.97-2.24-1.79,0-3.22,1.31-3.22,3.25,0,1.67,1.33,3.07,3.18,3.07,.96,0,1.63-.38,2.05-.99l.08,.88h.95v-3.39h-3.18Zm-8.1,1.09l.96-2.34,.96,2.34h-1.92Zm2.87,2.31h1.3l-2.64-6.11h-1.14l-2.65,6.11h1.31l.5-1.22h2.81l.5,1.22Zm-7.72-6.11v3.94l-3.34-3.94h-.91v6.11h1.22v-3.83l3.31,3.83h.94v-6.11h-1.22Zm-7.43,6.11h1.22v-6.11h-1.22v6.11Zm-1.98-6.11h-.86l-2.32,3.7-2.32-3.7h-.86v6.11h1.22l-.02-3.45,1.61,2.54h0s.74,0,.74,0l1.59-2.51v3.41h1.22v-6.11Zm-10.51,1.13v-1.13h-4.49v6.11h4.49v-1.13h-3.27v-1.31h2.91v-1.13h-2.91v-1.4h3.27Zm-9.59,1.58v1.13h1.81c-.24,.72-.83,1.23-1.72,1.23-1.19,0-1.94-.92-1.94-1.93,0-1.3,.84-2.11,2-2.11,.55,0,1.32,.2,1.64,1.1h1.31c-.38-1.55-1.67-2.24-2.97-2.24-1.79,0-3.22,1.31-3.22,3.25,0,1.67,1.33,3.07,3.18,3.07,.96,0,1.63-.38,2.05-.99l.08,.88h.95v-3.39h-3.18Zm-8.1,1.09l.96-2.34,.96,2.34h-1.92Zm2.87,2.31h1.3l-2.64-6.11h-1.14l-2.65,6.11h1.31l.5-1.22h2.81l.5,1.22Zm-10.41-4.98h1.31c.67,0,1.23,.37,1.23,.95s-.56,.95-1.23,.95h-1.31v-1.9Zm2.66,4.98h1.48l-1.59-2.18c.73-.33,1.19-.99,1.19-1.84,0-1.26-1.01-2.08-2.39-2.08h-2.58v6.11h1.22v-1.94h1.26l1.4,1.94Zm-8.77-1.03c-1.11,0-1.94-.91-1.94-2.02s.83-2.02,1.94-2.02,1.94,.91,1.94,2.02-.83,2.02-1.94,2.02m0-5.18c-1.76,0-3.18,1.4-3.18,3.16s1.42,3.16,3.18,3.16,3.18-1.4,3.18-3.16-1.42-3.16-3.18-3.16m-4.31,1.24v-1.13h-4.43v6.11h1.22v-2.27h2.8v-1.13h-2.8v-1.57h3.21Z"/>
  </g>
</svg>